<svg width="114" height="96" fill="none" xmlns="http://www.w3.org/2000/svg"><path fill-rule="evenodd" clip-rule="evenodd" d="M113.862 84.59c-13.219-10.387-31.396-8.682-46.636-2.177 8.263 8.892 33.39 24.394 46.636 2.177z" fill="url(#paint0_linear_19_20)"/><path fill-rule="evenodd" clip-rule="evenodd" d="M56.944 80.184l.026.026C76.38 47.24 90.728 35.226 56.944 0c-33.81 35.226-19.462 47.24-.026 80.236l.026-.052z" fill="url(#paint1_linear_19_20)"/><path fill-rule="evenodd" clip-rule="evenodd" d="M92.485 84.223c21.797-9.076 21.43-38.111 20.249-40.131-2.806 5.77-10.754 10.072-20.747 11.462-17.784 2.466-21.298 11.331-36.328 17.679 0 0 .026.157 4.275 4.433 7.082 7.108 23.66 10.255 32.551 6.557z" fill="url(#paint2_linear_19_20)"/><path fill-rule="evenodd" clip-rule="evenodd" d="M61.141 73.469c23.292 2.124 38.557-28.774 35.96-52.722-23.029 1.863-37.744 32.21-35.96 52.722z" fill="url(#paint3_linear_19_20)"/><path fill-rule="evenodd" clip-rule="evenodd" d="M76.721 31.108C65.993 42.151 60.013 59.777 61.115 73.26 71.58 56.209 79.37 44.826 76.72 31.109z" fill="#03585C"/><path fill-rule="evenodd" clip-rule="evenodd" d="M0 84.59c13.22-10.387 31.108-9.967 46.636-2.177C38.374 91.305 13.246 106.806 0 84.59z" fill="url(#paint4_linear_19_20)"/><path fill-rule="evenodd" clip-rule="evenodd" d="M21.403 84.223C-.393 75.147-.027 46.112 1.154 44.092c2.807 5.77 10.754 10.072 20.748 11.462C39.685 58.02 43.2 66.885 58.23 73.233c0 0-.027.157-4.276 4.433-7.108 7.108-23.685 10.255-32.55 6.557z" fill="url(#paint5_linear_19_20)"/><path fill-rule="evenodd" clip-rule="evenodd" d="M52.721 73.469c-23.291 2.124-38.557-28.774-35.96-52.722 23.03 1.863 37.744 32.21 35.96 52.722z" fill="url(#paint6_linear_19_20)"/><path fill-rule="evenodd" clip-rule="evenodd" d="M52.721 73.469c-11.987 1.102-21.823-6.557-28.223-17.495 13.43 2.544 18.177 9.05 28.38 14.662a48.5 48.5 0 01-.157 2.833zM89.39 55.974c-13.43 2.544-18.177 9.05-28.38 14.662.026.97.052 1.915.131 2.833 11.987 1.102 21.85-6.557 28.25-17.495zM21.403 84.223a29.27 29.27 0 01-9.128-5.954c10.938-3.226 23.266-1.416 34.361 4.144-8.026 3.541-18.702 4.538-25.233 1.81z" fill="#03585C"/><path fill-rule="evenodd" clip-rule="evenodd" d="M37.141 31.108c-2.65 13.718 5.167 25.102 15.607 42.151 1.101-13.456-4.88-31.108-15.607-42.15zm64.262 47.345c-10.99-2.86-23.318-.682-34.177 3.96 8.026 3.541 18.728 4.512 25.26 1.81a29.714 29.714 0 008.917-5.77z" fill="#03585C"/><path fill-rule="evenodd" clip-rule="evenodd" d="M78.243 92.302H31.37c-.158-.132-.29-.236-.473-.42-1.206-1.18-2.124-2.78-1.836-4.616.158-.97.892-1.574 1.18-2.02-.498 0-.944.315-1.468.393l-3.463.499c-.681.13-.76.472-1.495.472-.157-.236-.21-.21-.21-.63-.472 0-.839-.105-1.127-.078-.289 0-.656.078-1.154.078 0-.42.026-.34-.105-.63-.525.053-1.128.709-1.26 0-.157-1.022 1.758-1.232 2.466-1.258.682-.026 1.076-.184 1.653-.315l-.709-1.495c-.393-.97.473-2.282.604-3.515.105-.918-.053-.34.236-.892l.288-.839c.945 0 .997.21 1.784 1.154l1.469 1.574c.367.262.97.34 1.442.55 1.102.473.97 1.39 2.676.709.996-.394 1.678-1.023 2.596-1.495.08-.105 2.676-1.967 4.276-3.62 1.075-1.101 2.964-2.465 3.174-2.701.367-.368.472-.84.446-1.548.183-.393.157-1.705.236-2.282.078-.708.105-1.6.105-2.308.183-.367.157-4.04.078-4.564-.13-.708-.13-1.495-.236-2.203-.078-.656-.288-1.522-.34-2.204-.08-.891.288-3.54.498-4.196.183-.604.472-1.102.787-1.574l1.075-1.39c.918-.446.21-.367 2.072-.892 2.177-.603 3.489-1.154 5.508-1.941l1.18-.367c.447-.21.315-.499.29-1.128-.106-3.725-.21-1.495-.762-3.908-.21-.918-.157-.394-.655-.84-.289-.262-.263-.76-.394-1.18-.052-.184-.13-.367-.183-.55-.079-.316-.053-.368-.131-.604l-.289-.997c0-.026 0-.052.026-.052.105-.813.656.315.63-1.102l-.053-1.679c.079-1.652-.105-2.02.42-3.357.787-1.915 2.15-3.016 4.354-3.174 1.521-.105 2.177.105 3.174.577.76.394 1.6 1.128 2.072 1.81 1.574 2.335.813 3.489.865 6.531.42 0 .341-.026.63.105.026.708 0 .63-.21 1.128-.157.446-.078.997-.603 2.256-.236.603-.55.236-.84.603-.104.131-.183.97-.236 1.207-.55 2.15-.524-.315-.445 3.83l9.311 2.7.131.08c.053.052.158.104.184.13.157.105.131.08.288.237.236.21.368.367.525.63.34.524.472.943.708 1.6.42 1.206.656 2.307.84 3.697.052.473.078 1.68.052 2.151a19.295 19.295 0 00-.052 2.177c.026.761.026 1.522.052 2.282.026.892.131 1.39.157 2.204.026.839.079 1.836.21 2.623.079.472.131.891.184 1.311.052.498.183.813.236 1.26.105.235.131.445.236.707.524 1.417 1.101 1.05 2.518 2.544.236.237.262.341.472.578 2.046 2.177 1.05 1.547 3.593 3.436.289.21.918.76 1.26.865 1.127.84 2.963-.262 3.777-.603 1.127-.472 1.862-.289 3.095-1.967.655-.892 1.836-1.548 2.072-.551.079.288-.131.524-.158.997-.026.891.105 1.626.158 2.386.21 2.519.13 1.023-.158 2.178 3.62-.84 3.122 1.154 2.57 1.049-.865-.184-.288-.341-2.098.314a17.37 17.37 0 00-1.101.473l-1.154.498c-.76.288-.394 0-1.128.42-.866.472-2.098-.84-3.593-.97.052 1.416 1.127 1.022.104 4.065-.55 1.6-1.469 3.173-2.701 4.17-.158.131-.158.158-.341.289-.682.498-1.207.314-1.994.577-.34.131-.55.288-.787.446l-.21.105zm-53.404-11.2c0 .445.21 1.285.341 1.547.709-.052 1.023-1.311.997-1.547 0-.184-.315-.682-.42-.866-.21-.315-.288-.498-.655-.603-.131.34-.263.97-.263 1.469zm63.397-1.68c0 .42.262.867.446 1.155.21-.157.656-.997.708-1.128.131-.446.079-1.285.053-1.888-.551.157-1.233 1.285-1.207 1.862zm-49.81 2.703c-.63.183-.918.42-1.469.655-.655.263-1.127.158-1.468.709l5.875.524c.577 0 1.233.131 1.81.236 1.442.21 1.574.184 3.042.21 1.154 0 .656-.236 1.154-2.02.709-2.491 1.312-4.354 1.26-7.186.367-.997.236-4.302-.027-5.745-.078-.42-.026-.446-.393-.55-.158.734-.236 1.678-.341 2.413l-.446 2.465c-.341.813-.498 2.675-1.076 3.2l-5.01 3.646c-.917.577-2.281 1.05-2.91 1.443zm31.476 1.993c.524-.131.445-.236.813-.525.236-.183.524-.367.813-.524.34-.184.498-.341.813-.525.787-.446 2.256-.813 3.148-.996 3.436-.709 1.678-.315 4.354-.315-.237-.315-2.309-1.023-3.07-1.338-.393-.157-.602-.288-1.022-.446-.918-.367-2.912-1.652-3.672-2.308-.761-.656-1.784-1.259-2.256-2.15-.184-.342-.262-.683-.367-1.103a76.74 76.74 0 00-.63-2.334c-.105-.367-.236-.787-.288-1.18-.105-.551-.079-.866-.446-1.128.026 1.469-.079 2.57-.026 4.066.026.655.13 1.154.157 1.967 0 .603-.026 1.495.052 2.072.08.55.184 1.311.236 1.888 0 .709 1.076 4.38 1.39 4.879z" fill="#fff"/><defs><linearGradient id="paint0_linear_19_20" x1="89.8" y1="91.02" x2="90.866" y2="80.306" gradientUnits="userSpaceOnUse"><stop stop-color="#005559"/><stop offset="1" stop-color="#62BB46"/></linearGradient><linearGradient id="paint1_linear_19_20" x1="56.935" y1="68.439" x2="56.935" y2="-2.359" gradientUnits="userSpaceOnUse"><stop stop-color="#005559"/><stop offset="1" stop-color="#62BB46"/></linearGradient><linearGradient id="paint2_linear_19_20" x1="86.175" y1="79.677" x2="84.001" y2="55.507" gradientUnits="userSpaceOnUse"><stop stop-color="#005559"/><stop offset="1" stop-color="#62BB46"/></linearGradient><linearGradient id="paint3_linear_19_20" x1="71.045" y1="63.447" x2="92.014" y2="25.621" gradientUnits="userSpaceOnUse"><stop stop-color="#005559"/><stop offset="1" stop-color="#62BB46"/></linearGradient><linearGradient id="paint4_linear_19_20" x1="24.069" y1="91.016" x2="23.003" y2="80.293" gradientUnits="userSpaceOnUse"><stop stop-color="#005559"/><stop offset="1" stop-color="#62BB46"/></linearGradient><linearGradient id="paint5_linear_19_20" x1="27.696" y1="79.677" x2="29.869" y2="55.507" gradientUnits="userSpaceOnUse"><stop stop-color="#005559"/><stop offset="1" stop-color="#62BB46"/></linearGradient><linearGradient id="paint6_linear_19_20" x1="42.825" y1="63.447" x2="21.856" y2="25.621" gradientUnits="userSpaceOnUse"><stop stop-color="#005559"/><stop offset="1" stop-color="#62BB46"/></linearGradient></defs></svg>