<svg width="625" height="235" fill="none" xmlns="http://www.w3.org/2000/svg"><path d="M624.328-79.65c-16.831-.697-37.858-16.333-49.783-27.857-3.461-3.335-6.9-6.87-10.228-10.281-14.099-14.467-28.681-29.416-49.743-35.857-15.322-4.689-36.044-1.635-50.396 7.433-10.313 6.53-15.998 15.259-15.987 24.615.005 5.402 1.87 10.553 3.667 15.531 2.362 6.517 4.589 12.687 2.902 19.218-2.514 9.714-12.238 16.002-22.534 22.663-7.957 5.158-16.198 10.472-21.23 17.668-9.246 13.178-5.523 28.153-1.916 42.64.389 1.53.756 3.05 1.118 4.55 1.77 7.435 6.046 32.463-13.187 42.568-19.257 10.092-40.673-5.28-53.203-21.517-14.321-18.573-28.274-27.407-42.67-26.99-12.293.35-24.773 7.756-37.125 21.976-28.277 32.567-55.957 45.593-98.746 46.48-9.613.199-18.921-.305-27.913-.782-19.849-1.07-38.59-2.043-59.853 3.98-20.967 5.977-40.495 14.409-59.372 22.542-29.916 12.899-58.18 25.085-92.343 28.867-5.543.605-11.226 1.055-16.725 1.474-13.167 1.018-26.806 2.072-39.903 5.618-17.009 4.601-37.135 15.727-42.703 33.223-3.85 12.114.299 24.056 4.31 35.573 4.286 12.29 8.322 23.897 3.623 35.804-.645 1.628-1.468 3.17-2.355 4.691l3.186-.89a30.124 30.124 0 001.515-3.28c4.96-12.559.625-25.028-3.577-37.09-3.919-11.254-7.965-22.897-4.315-34.414 5.27-16.563 24.575-27.171 40.85-31.567 12.829-3.471 26.32-4.503 39.351-5.522 5.517-.423 11.223-.861 16.82-1.48 34.596-3.826 64.391-16.672 93.19-29.084C37.84 82.743 57.27 74.378 78.057 68.45c20.64-5.906 39.287-4.925 58.883-3.863 9.05.48 18.399.992 28.13.8 43.131-.907 72.352-14.634 100.853-47.437 11.827-13.61 23.608-20.687 35.04-21.008C314.305-3.45 328 5.36 341.657 23.076c13.082 16.97 35.7 32.914 56.45 22.018C418.875 34.196 414.443 7.919 412.59.12c-.361-1.5-.733-3.036-1.122-4.568-3.492-14.074-7.118-28.632 1.572-41.038 4.759-6.792 12.77-11.964 20.514-16.985 10.247-6.628 20.853-13.491 23.574-24.054 1.838-7.094-.598-13.803-2.938-20.308-1.757-4.835-3.564-9.848-3.555-14.925.006-8.608 5.275-16.681 14.853-22.735 13.678-8.648 33.417-11.562 48.02-7.097 20.493 6.272 34.89 21.042 48.799 35.31 3.332 3.43 6.794 6.977 10.278 10.325 3.595 3.472 30.173 28.4 52.343 28.589l-.636-2.273.036-.01z" fill="#fff" fill-opacity=".2"/></svg>