<svg width="625" height="235" viewBox="0 0 625 235" fill="none" xmlns="http://www.w3.org/2000/svg">
<path d="M624.328 -79.65C607.497 -80.3472 586.47 -95.9834 574.545 -107.507C571.084 -110.842 567.645 -114.377 564.317 -117.788C550.218 -132.255 535.636 -147.204 514.574 -153.645C499.252 -158.334 478.53 -155.28 464.178 -146.212C453.865 -139.682 448.18 -130.953 448.191 -121.597C448.196 -116.195 450.061 -111.044 451.858 -106.066C454.22 -99.5486 456.447 -93.3789 454.76 -86.8484C452.246 -77.1343 442.522 -70.8456 432.226 -64.1848C424.269 -59.0272 416.028 -53.713 410.996 -46.5172C401.75 -33.3386 405.473 -18.3639 409.08 -3.8775C409.469 -2.34625 409.836 -0.827883 410.198 0.672591C411.968 8.10834 416.244 33.1361 397.011 43.2411C377.754 53.3333 356.338 37.9604 343.808 21.7236C329.487 3.15128 315.534 -5.68299 301.138 -5.26628C288.845 -4.91683 276.365 2.48977 264.013 16.7102C235.736 49.2766 208.056 62.3029 165.267 63.1903C155.654 63.3889 146.346 62.8847 137.354 62.4078C117.505 61.3388 98.7637 60.3654 77.5008 66.3875C56.5343 72.3653 37.0064 80.7966 18.1288 88.9305C-11.7874 101.829 -40.0502 114.015 -74.2136 117.797C-79.7571 118.402 -85.4402 118.852 -90.9393 119.271C-104.106 120.289 -117.745 121.343 -130.842 124.889C-147.851 129.49 -167.977 140.616 -173.545 158.112C-177.395 170.226 -173.246 182.168 -169.235 193.685C-164.949 205.975 -160.913 217.582 -165.612 229.489C-166.257 231.117 -167.08 232.659 -167.967 234.18L-164.781 233.29C-164.211 232.223 -163.704 231.136 -163.266 230.01C-158.306 217.451 -162.641 204.982 -166.843 192.92C-170.762 181.666 -174.808 170.023 -171.158 158.506C-165.888 141.943 -146.583 131.335 -130.308 126.939C-117.479 123.468 -103.988 122.436 -90.9567 121.417C-85.4397 120.994 -79.7337 120.556 -74.1365 119.937C-39.5414 116.111 -9.7455 103.265 19.0522 90.8528C37.8404 82.7439 57.2708 74.3784 78.0583 68.4506C98.6977 62.545 117.345 63.5255 136.941 64.588C145.991 65.0678 155.34 65.5799 165.071 65.3871C208.202 64.4812 237.423 50.7539 265.924 17.9514C277.751 4.34062 289.532 -2.73551 300.964 -3.0566C314.306 -3.44864 328.001 5.3612 341.658 23.0772C354.74 40.0472 377.358 55.991 398.108 45.0955C418.875 34.195 414.443 7.91807 412.59 0.119365C412.229 -1.38111 411.857 -2.91737 411.468 -4.44863C407.976 -18.5234 404.35 -33.0814 413.04 -45.4871C417.799 -52.2786 425.81 -57.4512 433.554 -62.4722C443.801 -69.1 454.407 -75.9632 457.128 -86.5262C458.966 -93.6201 456.53 -100.329 454.19 -106.834C452.433 -111.669 450.626 -116.682 450.635 -121.759C450.641 -130.367 455.91 -138.44 465.488 -144.494C479.166 -153.142 498.905 -156.056 513.508 -151.591C534.001 -145.319 548.398 -130.549 562.307 -116.281C565.639 -112.851 569.101 -109.304 572.585 -105.956C576.18 -102.484 602.758 -77.5557 624.928 -77.3671L624.292 -79.64L624.328 -79.65Z" fill="white" fill-opacity="0.2"/>
</svg>
